<mxfile host="app.diagrams.net" modified="2024-02-03T06:46:31.160Z" agent="Mozilla/5.0 (Windows NT 10.0; Win64; x64) AppleWebKit/537.36 (KHTML, like Gecko) Chrome/120.0.0.0 Safari/537.36" version="22.1.17" etag="_x-YCsqr7dtkc7ARd1QA" type="github">
  <diagram name="第 1 页" id="4G1S3Z51ku6ghBwGzck5">
    <mxGraphModel>
      <root>
        <mxCell id="0" />
        <mxCell id="1" parent="0" />
      </root>
    </mxGraphModel>
  </diagram>
</mxfile>
